<?xml version="1.0" standalone="no"?>
<!DOCTYPE svg PUBLIC "-//W3C//DTD SVG 20010904//EN"
 "http://www.w3.org/TR/2001/REC-SVG-20010904/DTD/svg10.dtd">
<svg version="1.0" xmlns="http://www.w3.org/2000/svg"
 width="512.000000pt" height="512.000000pt" viewBox="0 0 512.000000 512.000000"
 preserveAspectRatio="xMidYMid meet">

<g transform="translate(0.000000,512.000000) scale(0.100000,-0.100000)"
fill="#000000" stroke="none">
<path d="M2355 4762 c-38 -24 -52 -40 -60 -75 -7 -25 -5 -27 24 -27 17 0 31
-5 31 -11 0 -41 -143 -1323 -151 -1362 -6 -27 -27 -72 -47 -100 -85 -125 -155
-311 -190 -507 -15 -86 -17 -198 -17 -1145 l0 -1051 25 -49 c21 -39 37 -55 79
-77 l53 -28 448 0 c308 0 458 4 481 11 51 18 97 55 122 102 l22 42 3 960 c3
997 -1 1164 -37 1325 -35 159 -101 321 -173 427 -20 28 -41 73 -47 100 -10 44
-141 1289 -141 1341 0 18 6 22 30 22 35 0 35 0 16 45 -10 22 -28 41 -55 54
-36 19 -58 21 -213 21 -150 0 -177 -2 -203 -18z"/>
</g>
</svg>
