<?xml version="1.0" standalone="no"?>
<!DOCTYPE svg PUBLIC "-//W3C//DTD SVG 20010904//EN"
 "http://www.w3.org/TR/2001/REC-SVG-20010904/DTD/svg10.dtd">
<svg version="1.0" xmlns="http://www.w3.org/2000/svg"
 width="512.000000pt" height="512.000000pt" viewBox="0 0 512.000000 512.000000"
 preserveAspectRatio="xMidYMid meet">

<g transform="translate(0.000000,512.000000) scale(0.100000,-0.100000)"
fill="#000000" stroke="none">
<path d="M2430 4908 c-501 -23 -923 -184 -1217 -462 -298 -281 -444 -710 -378
-1111 64 -398 338 -691 827 -886 151 -60 294 -99 700 -189 552 -123 635 -147
798 -231 225 -115 320 -253 320 -462 -1 -444 -526 -730 -1144 -622 -264 46
-471 158 -609 328 -58 72 -88 129 -116 222 -28 92 -40 114 -73 131 -40 21
-726 21 -767 -1 -60 -30 -65 -124 -16 -316 117 -463 468 -810 998 -984 249
-82 487 -116 812 -116 1038 1 1717 457 1824 1225 16 110 14 309 -4 409 -84
485 -493 817 -1230 1001 -55 13 -254 59 -442 101 -189 42 -391 92 -450 111
-298 96 -466 233 -507 413 -53 231 40 461 237 590 259 169 749 186 1045 37
203 -102 328 -256 387 -477 13 -50 29 -97 35 -104 27 -33 64 -36 424 -33 l358
3 29 33 c34 38 36 65 13 203 -93 553 -508 967 -1129 1124 -223 57 -447 76
-725 63z"/>
</g>
</svg>
