<?xml version="1.0" standalone="no"?>
<!DOCTYPE svg PUBLIC "-//W3C//DTD SVG 20010904//EN"
 "http://www.w3.org/TR/2001/REC-SVG-20010904/DTD/svg10.dtd">
<svg version="1.0" xmlns="http://www.w3.org/2000/svg"
 width="512.000000pt" height="512.000000pt" viewBox="0 0 512.000000 512.000000"
 preserveAspectRatio="xMidYMid meet">

<g transform="translate(0.000000,512.000000) scale(0.100000,-0.100000)"
fill="#000000" stroke="none">
<path d="M2534 4903 c-12 -2 -32 -15 -45 -29 -13 -13 -181 -361 -374 -771
l-351 -747 -749 -352 c-413 -195 -759 -364 -773 -377 -35 -35 -35 -99 0 -134
14 -13 360 -182 773 -377 l749 -352 352 -748 c202 -432 362 -758 377 -773 35
-36 99 -36 134 -1 14 15 178 350 377 774 l352 747 748 352 c428 202 759 363
773 378 36 35 36 99 0 134 -14 15 -345 176 -773 378 l-748 352 -352 747 c-193
412 -362 758 -375 771 -25 24 -60 34 -95 28z m180 -1723 c229 -58 408 -237
466 -466 87 -338 -124 -687 -466 -774 -338 -87 -687 124 -774 466 -86 336 123
685 462 774 97 25 214 25 312 0z"/>
</g>
</svg>
